G04 #@! TF.GenerationSoftware,KiCad,Pcbnew,5.1.5+dfsg1-2build2*
G04 #@! TF.CreationDate,2020-07-21T14:48:07-07:00*
G04 #@! TF.ProjectId,muSDRx,6d755344-5278-42e6-9b69-6361645f7063,0.1*
G04 #@! TF.SameCoordinates,Original*
G04 #@! TF.FileFunction,Profile,NP*
%FSLAX46Y46*%
G04 Gerber Fmt 4.6, Leading zero omitted, Abs format (unit mm)*
G04 Created by KiCad (PCBNEW 5.1.5+dfsg1-2build2) date 2020-07-21 14:48:07*
%MOMM*%
%LPD*%
G04 APERTURE LIST*
%ADD10C,0.050000*%
G04 APERTURE END LIST*
D10*
X61300000Y-94750000D02*
G75*
G02X61300000Y-96250000I0J-750000D01*
G01*
X145300000Y-94750000D02*
G75*
G02X145300000Y-96250000I0J-750000D01*
G01*
X137050000Y-96250000D02*
G75*
G02X137050000Y-94750000I0J750000D01*
G01*
X145300000Y-94750000D02*
X137050000Y-94750000D01*
X137050000Y-96250000D02*
X145300000Y-96250000D01*
X123050000Y-96250000D02*
G75*
G02X123050000Y-94750000I0J750000D01*
G01*
X131100000Y-94750000D02*
X123050000Y-94750000D01*
X131100000Y-94750000D02*
G75*
G02X131100000Y-96250000I0J-750000D01*
G01*
X123050000Y-96250000D02*
X131100000Y-96250000D01*
X109050000Y-96250000D02*
G75*
G02X109050000Y-94750000I0J750000D01*
G01*
X117000000Y-94750000D02*
G75*
G02X117000000Y-96250000I0J-750000D01*
G01*
X117000000Y-94750000D02*
X109050000Y-94750000D01*
X109050000Y-96250000D02*
X117000000Y-96250000D01*
X102900000Y-94750000D02*
G75*
G02X102900000Y-96250000I0J-750000D01*
G01*
X102900000Y-94750000D02*
X95050000Y-94750000D01*
X95050000Y-96250000D02*
G75*
G02X95050000Y-94750000I0J750000D01*
G01*
X95050000Y-96250000D02*
X102900000Y-96250000D01*
X81050000Y-96250000D02*
G75*
G02X81050000Y-94750000I0J750000D01*
G01*
X81050000Y-96250000D02*
X89300000Y-96250000D01*
X89300000Y-94750000D02*
X81050000Y-94750000D01*
X89300000Y-94750000D02*
G75*
G02X89300000Y-96250000I0J-750000D01*
G01*
X67050000Y-96250000D02*
X75200000Y-96250000D01*
X75200000Y-94750000D02*
X67050000Y-94750000D01*
X67050000Y-96250000D02*
G75*
G02X67050000Y-94750000I0J750000D01*
G01*
X75200000Y-94750000D02*
G75*
G02X75200000Y-96250000I0J-750000D01*
G01*
X53150000Y-96250000D02*
X61300000Y-96250000D01*
X53150000Y-96250000D02*
G75*
G02X53150000Y-94750000I0J750000D01*
G01*
X61300000Y-94750000D02*
X53150000Y-94750000D01*
X50000000Y-150000000D02*
X50000000Y-50000000D01*
X150000000Y-150000000D02*
X50000000Y-150000000D01*
X150000000Y-50000000D02*
X150000000Y-150000000D01*
X50000000Y-50000000D02*
X150000000Y-50000000D01*
M02*
