M48
; DRILL file {KiCad 5.1.5+dfsg1-2build2} date Sun 12 Jul 2020 09:21:29 PM PDT
; FORMAT={-:-/ absolute / metric / decimal}
; #@! TF.CreationDate,2020-07-12T21:21:29-07:00
; #@! TF.GenerationSoftware,Kicad,Pcbnew,5.1.5+dfsg1-2build2
FMAT,2
METRIC
T1C0.400
T2C0.635
T3C0.762
T4C0.800
T5C0.900
T6C1.000
T7C1.001
T8C1.100
T9C1.800
T10C2.200
T11C1.200
%
G90
G05
T1
X51.06Y-114.71
X51.22Y-132.22
X51.75Y-147.25
X51.945Y-123.75
X52.88Y-136.25
X53.3Y-131.1
X53.37Y-132.14
X54.5Y-139.3
X55.25Y-133.0
X56.5Y-134.5
X56.5Y-139.3
X58.0Y-135.5
X59.0Y-134.75
X59.1Y-106.3
X59.75Y-124.0
X60.535Y-131.45
X60.75Y-130.0
X62.0Y-122.75
X62.25Y-137.0
X62.4Y-103.9
X63.835Y-139.75
X64.03Y-136.9
X64.5Y-117.5
X64.5Y-123.25
X64.841Y-135.793
X65.75Y-124.5
X66.42Y-135.44
X67.25Y-146.5
X67.98Y-137.0
X68.06Y-132.19
X68.976Y-149.299
X69.018Y-140.525
X69.59Y-125.225
X69.62Y-136.512
X70.012Y-140.417
X70.16Y-134.612
X70.75Y-132.0
X70.752Y-145.09
X71.5Y-140.5
X71.75Y-113.0
X71.878Y-134.612
X71.963Y-131.213
X72.525Y-117.225
X72.75Y-123.15
X73.0Y-132.432
X73.047Y-138.937
X74.28Y-137.22
X74.46Y-125.016
X74.579Y-140.892
X74.65Y-119.041
X75.537Y-131.294
X75.623Y-139.808
X75.75Y-118.4
X76.847Y-124.863
X77.039Y-133.57
X77.147Y-110.578
X77.249Y-142.84
X77.5Y-115.75
X78.67Y-133.4
X78.75Y-137.2
X79.561Y-139.15
X80.3Y-122.7
X80.5Y-108.75
X80.5Y-117.5
X80.5Y-131.75
X80.975Y-120.75
X81.0Y-143.5
X81.0Y-146.75
X81.45Y-114.348
X81.75Y-110.0
X82.5Y-131.0
X82.525Y-118.737
X82.873Y-133.2
X83.0Y-111.25
X83.25Y-115.25
X83.25Y-136.0
X83.274Y-139.05
X83.5Y-124.0
X84.428Y-134.829
X84.75Y-142.5
X84.986Y-132.029
X85.0Y-138.0
X85.78Y-103.03
X86.0Y-121.0
X86.618Y-136.95
X87.25Y-122.75
X87.5Y-118.25
X87.5Y-133.25
X88.792Y-130.522
X89.65Y-105.25
X90.038Y-112.462
X90.75Y-104.25
X90.75Y-110.25
X90.987Y-123.275
X91.0Y-130.0
X91.517Y-133.992
X92.0Y-107.0
X92.104Y-125.625
X93.074Y-111.176
X93.253Y-119.675
X93.378Y-134.325
X93.44Y-124.568
X93.5Y-138.725
X94.425Y-105.981
X94.425Y-117.5
X94.6Y-130.2
X95.0Y-102.25
X95.0Y-134.0
X95.15Y-105.0
X95.25Y-120.0
X95.6Y-138.7
X95.875Y-109.875
X95.875Y-115.75
X95.9Y-128.3
X95.935Y-111.625
X96.0Y-145.25
X96.05Y-143.55
X96.2Y-118.9
X96.25Y-102.25
X97.49Y-131.515
X97.5Y-109.25
X98.0Y-133.0
X98.5Y-129.1
X99.038Y-103.712
X99.1Y-105.75
X100.25Y-144.25
X101.0Y-137.275
X102.0Y-129.0
X102.0Y-133.9
X103.2Y-138.9
X104.25Y-105.75
X104.39Y-136.029
X106.0Y-115.75
X106.75Y-113.75
X106.9Y-138.8
X108.25Y-125.75
X108.25Y-149.25
X110.25Y-123.0
X115.0Y-133.8
X115.2Y-136.1
X115.2Y-136.1
X119.75Y-100.75
X119.75Y-105.0
X121.75Y-136.75
X124.0Y-109.75
X124.0Y-132.25
X125.25Y-131.25
X125.95Y-105.05
X126.5Y-137.25
X131.5Y-109.5
X136.75Y-118.75
T2
X107.5Y-100.75
X79.5Y-115.5
X86.75Y-107.75
X86.75Y-105.75
X86.75Y-103.75
X86.75Y-100.75
X84.25Y-121.5
X79.5Y-113.0
X103.75Y-100.75
X103.75Y-120.75
X54.0Y-118.25
X84.75Y-112.75
X87.25Y-112.75
X111.75Y-136.25
X123.0Y-100.75
X57.25Y-121.75
X86.75Y-109.75
T3
X52.87Y-126.38
X52.87Y-141.62
X55.41Y-126.38
X55.41Y-141.62
X57.95Y-126.38
X57.95Y-141.62
X60.49Y-126.38
X60.49Y-141.62
X63.03Y-126.38
X63.03Y-141.62
X65.57Y-126.38
X65.57Y-141.62
X68.11Y-126.38
X68.11Y-141.62
X70.65Y-126.38
X70.65Y-141.62
X73.19Y-126.38
X73.19Y-141.62
X75.73Y-126.38
X75.73Y-141.62
X78.27Y-126.38
X78.27Y-141.62
X80.81Y-126.38
X80.81Y-141.62
X83.35Y-126.38
X83.35Y-141.62
X85.89Y-126.38
X85.89Y-141.62
X88.43Y-126.38
X88.43Y-141.62
X90.97Y-126.38
X90.97Y-141.62
X93.51Y-126.38
X93.51Y-141.62
X96.05Y-126.38
X96.05Y-141.62
X98.59Y-126.38
X98.59Y-141.62
X101.13Y-126.38
X101.13Y-141.62
T4
X56.94Y-129.0
X56.94Y-144.24
X59.48Y-129.0
X59.48Y-144.24
X62.02Y-129.0
X62.02Y-144.24
X64.56Y-129.0
X64.56Y-144.24
X67.1Y-129.0
X67.1Y-144.24
X69.64Y-129.0
X69.64Y-144.24
X72.18Y-129.0
X72.18Y-144.24
X74.72Y-129.0
X74.72Y-144.24
X77.26Y-129.0
X77.26Y-144.24
X79.8Y-129.0
X79.8Y-144.24
X82.34Y-129.0
X82.34Y-144.24
X84.88Y-129.0
X84.88Y-144.24
X87.42Y-129.0
X87.42Y-144.24
X89.96Y-129.0
X89.96Y-144.24
X92.5Y-129.0
X92.5Y-144.24
T5
X106.8Y-136.3
X109.3Y-133.8
X109.3Y-138.8
T6
X122.0Y-105.05
X122.0Y-107.55
X122.0Y-110.05
X136.5Y-105.05
X136.5Y-110.05
X53.086Y-69.088
X53.086Y-71.628
X55.626Y-69.088
X55.626Y-71.628
X58.166Y-69.088
X58.166Y-71.628
X60.706Y-69.088
X60.706Y-71.628
X63.246Y-69.088
X63.246Y-71.628
X65.786Y-69.088
X65.786Y-71.628
X68.326Y-69.088
X68.326Y-71.628
X70.866Y-69.088
X70.866Y-71.628
X73.406Y-69.088
X73.406Y-71.628
X75.946Y-69.088
X75.946Y-71.628
X78.486Y-69.088
X78.486Y-71.628
X81.026Y-69.088
X81.026Y-71.628
X83.566Y-69.088
X83.566Y-71.628
X86.106Y-69.088
X86.106Y-71.628
X88.646Y-69.088
X88.646Y-71.628
X91.186Y-69.088
X91.186Y-71.628
X93.726Y-69.088
X93.726Y-71.628
X96.266Y-69.088
X96.266Y-71.628
X98.806Y-69.088
X98.806Y-71.628
X101.346Y-69.088
X101.346Y-71.628
X103.886Y-69.088
X103.886Y-71.628
X106.426Y-69.088
X106.426Y-71.628
X108.966Y-69.088
X108.966Y-71.628
X111.506Y-69.088
X111.506Y-71.628
X114.046Y-69.088
X114.046Y-71.628
X116.586Y-69.088
X116.586Y-71.628
X119.126Y-69.088
X119.126Y-71.628
X121.666Y-69.088
X121.666Y-71.628
X124.206Y-69.088
X124.206Y-71.628
X126.746Y-69.088
X126.746Y-71.628
X129.286Y-69.088
X129.286Y-71.628
X131.826Y-69.088
X131.826Y-71.628
X134.366Y-69.088
X134.366Y-71.628
X136.906Y-69.088
X136.906Y-71.628
X139.446Y-69.088
X139.446Y-71.628
X141.986Y-69.088
X141.986Y-71.628
X144.526Y-69.088
X144.526Y-71.628
X147.066Y-69.088
X147.066Y-71.628
X97.25Y-120.75
X99.79Y-120.75
X107.25Y-143.46
X107.25Y-146.0
X53.0Y-84.328
X53.0Y-86.868
X55.54Y-84.328
X55.54Y-86.868
X58.08Y-84.328
X58.08Y-86.868
X60.62Y-84.328
X60.62Y-86.868
X63.16Y-84.328
X63.16Y-86.868
X65.7Y-84.328
X65.7Y-86.868
X68.24Y-84.328
X68.24Y-86.868
X70.78Y-84.328
X70.78Y-86.868
X73.32Y-84.328
X73.32Y-86.868
X75.86Y-84.328
X75.86Y-86.868
X78.4Y-84.328
X78.4Y-86.868
X80.94Y-84.328
X80.94Y-86.868
X83.48Y-84.328
X83.48Y-86.868
X86.02Y-84.328
X86.02Y-86.868
X88.56Y-84.328
X88.56Y-86.868
X91.1Y-84.328
X91.1Y-86.868
X93.64Y-84.328
X93.64Y-86.868
X96.18Y-84.328
X96.18Y-86.868
X98.72Y-84.328
X98.72Y-86.868
X101.26Y-84.328
X101.26Y-86.868
X103.8Y-84.328
X103.8Y-86.868
X106.34Y-84.328
X106.34Y-86.868
X108.88Y-84.328
X108.88Y-86.868
X111.42Y-84.328
X111.42Y-86.868
X113.96Y-84.328
X113.96Y-86.868
X116.5Y-84.328
X116.5Y-86.868
X119.04Y-84.328
X119.04Y-86.868
X121.58Y-84.328
X121.58Y-86.868
X124.12Y-84.328
X124.12Y-86.868
X126.66Y-84.328
X126.66Y-86.868
X129.2Y-84.328
X129.2Y-86.868
X131.74Y-84.328
X131.74Y-86.868
X134.28Y-84.328
X134.28Y-86.868
X136.82Y-84.328
X136.82Y-86.868
X139.36Y-84.328
X139.36Y-86.868
X141.9Y-84.328
X141.9Y-86.868
X144.44Y-84.328
X144.44Y-86.868
X146.98Y-84.328
X146.98Y-86.868
X53.0Y-89.46
X53.0Y-92.0
X55.54Y-89.46
X55.54Y-92.0
X58.08Y-89.46
X58.08Y-92.0
X60.62Y-89.46
X60.62Y-92.0
X63.16Y-89.46
X63.16Y-92.0
X65.7Y-89.46
X65.7Y-92.0
X68.24Y-89.46
X68.24Y-92.0
X70.78Y-89.46
X70.78Y-92.0
X73.32Y-89.46
X73.32Y-92.0
X75.86Y-89.46
X75.86Y-92.0
X78.4Y-89.46
X78.4Y-92.0
X80.94Y-89.46
X80.94Y-92.0
X83.48Y-89.46
X83.48Y-92.0
X86.02Y-89.46
X86.02Y-92.0
X88.56Y-89.46
X88.56Y-92.0
X91.1Y-89.46
X91.1Y-92.0
X93.64Y-89.46
X93.64Y-92.0
X96.18Y-89.46
X96.18Y-92.0
X98.72Y-89.46
X98.72Y-92.0
X101.26Y-89.46
X101.26Y-92.0
X103.8Y-89.46
X103.8Y-92.0
X106.34Y-89.46
X106.34Y-92.0
X108.88Y-89.46
X108.88Y-92.0
X111.42Y-89.46
X111.42Y-92.0
X113.96Y-89.46
X113.96Y-92.0
X116.5Y-89.46
X116.5Y-92.0
X119.04Y-89.46
X119.04Y-92.0
X121.58Y-89.46
X121.58Y-92.0
X124.12Y-89.46
X124.12Y-92.0
X126.66Y-89.46
X126.66Y-92.0
X129.2Y-89.46
X129.2Y-92.0
X131.74Y-89.46
X131.74Y-92.0
X134.28Y-89.46
X134.28Y-92.0
X136.82Y-89.46
X136.82Y-92.0
X139.36Y-89.46
X139.36Y-92.0
X141.9Y-89.46
X141.9Y-92.0
X144.44Y-89.46
X144.44Y-92.0
X146.98Y-89.46
X146.98Y-92.0
X53.086Y-53.848
X53.086Y-56.388
X55.626Y-53.848
X55.626Y-56.388
X58.166Y-53.848
X58.166Y-56.388
X60.706Y-53.848
X60.706Y-56.388
X63.246Y-53.848
X63.246Y-56.388
X65.786Y-53.848
X65.786Y-56.388
X68.326Y-53.848
X68.326Y-56.388
X70.866Y-53.848
X70.866Y-56.388
X73.406Y-53.848
X73.406Y-56.388
X75.946Y-53.848
X75.946Y-56.388
X78.486Y-53.848
X78.486Y-56.388
X81.026Y-53.848
X81.026Y-56.388
X83.566Y-53.848
X83.566Y-56.388
X86.106Y-53.848
X86.106Y-56.388
X88.646Y-53.848
X88.646Y-56.388
X91.186Y-53.848
X91.186Y-56.388
X93.726Y-53.848
X93.726Y-56.388
X96.266Y-53.848
X96.266Y-56.388
X98.806Y-53.848
X98.806Y-56.388
X101.346Y-53.848
X101.346Y-56.388
X103.886Y-53.848
X103.886Y-56.388
X106.426Y-53.848
X106.426Y-56.388
X108.966Y-53.848
X108.966Y-56.388
X111.506Y-53.848
X111.506Y-56.388
X114.046Y-53.848
X114.046Y-56.388
X116.586Y-53.848
X116.586Y-56.388
X119.126Y-53.848
X119.126Y-56.388
X121.666Y-53.848
X121.666Y-56.388
X124.206Y-53.848
X124.206Y-56.388
X126.746Y-53.848
X126.746Y-56.388
X129.286Y-53.848
X129.286Y-56.388
X131.826Y-53.848
X131.826Y-56.388
X134.366Y-53.848
X134.366Y-56.388
X136.906Y-53.848
X136.906Y-56.388
X139.446Y-53.848
X139.446Y-56.388
X141.986Y-53.848
X141.986Y-56.388
X144.526Y-53.848
X144.526Y-56.388
X147.066Y-53.848
X147.066Y-56.388
X98.0Y-100.75
X100.54Y-100.75
X67.91Y-101.0
X67.91Y-103.54
X76.25Y-120.75
X78.79Y-120.75
X53.086Y-74.168
X53.086Y-76.708
X55.626Y-74.168
X55.626Y-76.708
X58.166Y-74.168
X58.166Y-76.708
X60.706Y-74.168
X60.706Y-76.708
X63.246Y-74.168
X63.246Y-76.708
X65.786Y-74.168
X65.786Y-76.708
X68.326Y-74.168
X68.326Y-76.708
X70.866Y-74.168
X70.866Y-76.708
X73.406Y-74.168
X73.406Y-76.708
X75.946Y-74.168
X75.946Y-76.708
X78.486Y-74.168
X78.486Y-76.708
X81.026Y-74.168
X81.026Y-76.708
X83.566Y-74.168
X83.566Y-76.708
X86.106Y-74.168
X86.106Y-76.708
X88.646Y-74.168
X88.646Y-76.708
X91.186Y-74.168
X91.186Y-76.708
X93.726Y-74.168
X93.726Y-76.708
X96.266Y-74.168
X96.266Y-76.708
X98.806Y-74.168
X98.806Y-76.708
X101.346Y-74.168
X101.346Y-76.708
X103.886Y-74.168
X103.886Y-76.708
X106.426Y-74.168
X106.426Y-76.708
X108.966Y-74.168
X108.966Y-76.708
X111.506Y-74.168
X111.506Y-76.708
X114.046Y-74.168
X114.046Y-76.708
X116.586Y-74.168
X116.586Y-76.708
X119.126Y-74.168
X119.126Y-76.708
X121.666Y-74.168
X121.666Y-76.708
X124.206Y-74.168
X124.206Y-76.708
X126.746Y-74.168
X126.746Y-76.708
X129.286Y-74.168
X129.286Y-76.708
X131.826Y-74.168
X131.826Y-76.708
X134.366Y-74.168
X134.366Y-76.708
X136.906Y-74.168
X136.906Y-76.708
X139.446Y-74.168
X139.446Y-76.708
X141.986Y-74.168
X141.986Y-76.708
X144.526Y-74.168
X144.526Y-76.708
X147.066Y-74.168
X147.066Y-76.708
X53.086Y-64.008
X53.086Y-66.548
X55.626Y-64.008
X55.626Y-66.548
X58.166Y-64.008
X58.166Y-66.548
X60.706Y-64.008
X60.706Y-66.548
X63.246Y-64.008
X63.246Y-66.548
X65.786Y-64.008
X65.786Y-66.548
X68.326Y-64.008
X68.326Y-66.548
X70.866Y-64.008
X70.866Y-66.548
X73.406Y-64.008
X73.406Y-66.548
X75.946Y-64.008
X75.946Y-66.548
X78.486Y-64.008
X78.486Y-66.548
X81.026Y-64.008
X81.026Y-66.548
X83.566Y-64.008
X83.566Y-66.548
X86.106Y-64.008
X86.106Y-66.548
X88.646Y-64.008
X88.646Y-66.548
X91.186Y-64.008
X91.186Y-66.548
X93.726Y-64.008
X93.726Y-66.548
X96.266Y-64.008
X96.266Y-66.548
X98.806Y-64.008
X98.806Y-66.548
X101.346Y-64.008
X101.346Y-66.548
X103.886Y-64.008
X103.886Y-66.548
X106.426Y-64.008
X106.426Y-66.548
X108.966Y-64.008
X108.966Y-66.548
X111.506Y-64.008
X111.506Y-66.548
X114.046Y-64.008
X114.046Y-66.548
X116.586Y-64.008
X116.586Y-66.548
X119.126Y-64.008
X119.126Y-66.548
X121.666Y-64.008
X121.666Y-66.548
X124.206Y-64.008
X124.206Y-66.548
X126.746Y-64.008
X126.746Y-66.548
X129.286Y-64.008
X129.286Y-66.548
X131.826Y-64.008
X131.826Y-66.548
X134.366Y-64.008
X134.366Y-66.548
X136.906Y-64.008
X136.906Y-66.548
X139.446Y-64.008
X139.446Y-66.548
X141.986Y-64.008
X141.986Y-66.548
X144.526Y-64.008
X144.526Y-66.548
X147.066Y-64.008
X147.066Y-66.548
X133.0Y-117.25
X133.0Y-119.79
X57.25Y-116.96
X57.25Y-119.5
X53.086Y-79.248
X53.086Y-81.788
X55.626Y-79.248
X55.626Y-81.788
X58.166Y-79.248
X58.166Y-81.788
X60.706Y-79.248
X60.706Y-81.788
X63.246Y-79.248
X63.246Y-81.788
X65.786Y-79.248
X65.786Y-81.788
X68.326Y-79.248
X68.326Y-81.788
X70.866Y-79.248
X70.866Y-81.788
X73.406Y-79.248
X73.406Y-81.788
X75.946Y-79.248
X75.946Y-81.788
X78.486Y-79.248
X78.486Y-81.788
X81.026Y-79.248
X81.026Y-81.788
X83.566Y-79.248
X83.566Y-81.788
X86.106Y-79.248
X86.106Y-81.788
X88.646Y-79.248
X88.646Y-81.788
X91.186Y-79.248
X91.186Y-81.788
X93.726Y-79.248
X93.726Y-81.788
X96.266Y-79.248
X96.266Y-81.788
X98.806Y-79.248
X98.806Y-81.788
X101.346Y-79.248
X101.346Y-81.788
X103.886Y-79.248
X103.886Y-81.788
X106.426Y-79.248
X106.426Y-81.788
X108.966Y-79.248
X108.966Y-81.788
X111.506Y-79.248
X111.506Y-81.788
X114.046Y-79.248
X114.046Y-81.788
X116.586Y-79.248
X116.586Y-81.788
X119.126Y-79.248
X119.126Y-81.788
X121.666Y-79.248
X121.666Y-81.788
X124.206Y-79.248
X124.206Y-81.788
X126.746Y-79.248
X126.746Y-81.788
X129.286Y-79.248
X129.286Y-81.788
X131.826Y-79.248
X131.826Y-81.788
X134.366Y-79.248
X134.366Y-81.788
X136.906Y-79.248
X136.906Y-81.788
X139.446Y-79.248
X139.446Y-81.788
X141.986Y-79.248
X141.986Y-81.788
X144.526Y-79.248
X144.526Y-81.788
X147.066Y-79.248
X147.066Y-81.788
X106.75Y-121.75
X106.75Y-124.29
X106.75Y-126.83
X106.75Y-129.37
X71.55Y-100.99
X71.55Y-103.53
X75.22Y-101.0
X75.22Y-103.54
X53.086Y-58.928
X53.086Y-61.468
X55.626Y-58.928
X55.626Y-61.468
X58.166Y-58.928
X58.166Y-61.468
X60.706Y-58.928
X60.706Y-61.468
X63.246Y-58.928
X63.246Y-61.468
X65.786Y-58.928
X65.786Y-61.468
X68.326Y-58.928
X68.326Y-61.468
X70.866Y-58.928
X70.866Y-61.468
X73.406Y-58.928
X73.406Y-61.468
X75.946Y-58.928
X75.946Y-61.468
X78.486Y-58.928
X78.486Y-61.468
X81.026Y-58.928
X81.026Y-61.468
X83.566Y-58.928
X83.566Y-61.468
X86.106Y-58.928
X86.106Y-61.468
X88.646Y-58.928
X88.646Y-61.468
X91.186Y-58.928
X91.186Y-61.468
X93.726Y-58.928
X93.726Y-61.468
X96.266Y-58.928
X96.266Y-61.468
X98.806Y-58.928
X98.806Y-61.468
X101.346Y-58.928
X101.346Y-61.468
X103.886Y-58.928
X103.886Y-61.468
X106.426Y-58.928
X106.426Y-61.468
X108.966Y-58.928
X108.966Y-61.468
X111.506Y-58.928
X111.506Y-61.468
X114.046Y-58.928
X114.046Y-61.468
X116.586Y-58.928
X116.586Y-61.468
X119.126Y-58.928
X119.126Y-61.468
X121.666Y-58.928
X121.666Y-61.468
X124.206Y-58.928
X124.206Y-61.468
X126.746Y-58.928
X126.746Y-61.468
X129.286Y-58.928
X129.286Y-61.468
X131.826Y-58.928
X131.826Y-61.468
X134.366Y-58.928
X134.366Y-61.468
X136.906Y-58.928
X136.906Y-61.468
X139.446Y-58.928
X139.446Y-61.468
X141.986Y-58.928
X141.986Y-61.468
X144.526Y-58.928
X144.526Y-61.468
X147.066Y-58.928
X147.066Y-61.468
X62.0Y-148.0
X64.54Y-148.0
X67.08Y-148.0
X69.62Y-148.0
X72.16Y-148.0
X74.7Y-148.0
X77.24Y-148.0
X79.78Y-148.0
X82.32Y-148.0
X84.86Y-148.0
X87.4Y-148.0
X89.94Y-148.0
X92.48Y-148.0
X95.02Y-148.0
X97.56Y-148.0
X100.1Y-148.0
T7
X62.001Y-107.25
X62.001Y-109.749
T8
X141.5Y-103.5
X141.5Y-108.0
X148.0Y-103.5
X148.0Y-108.0
X110.25Y-103.5
X110.25Y-108.0
X116.75Y-103.5
X116.75Y-108.0
T10
X57.737Y-102.15
X57.737Y-112.348
T11
X138.5Y-133.75
X143.5Y-128.75
X143.5Y-138.75
X146.0Y-128.75
X146.0Y-138.75
X138.5Y-120.75
X143.5Y-115.75
X143.5Y-125.75
X146.0Y-115.75
X146.0Y-125.75
T4
G00X138.85Y-128.75
M15
G01X138.15Y-128.75
M16
G05
G00X138.85Y-138.75
M15
G01X138.15Y-138.75
M16
G05
G00X143.5Y-134.1
M15
G01X143.5Y-133.4
M16
G05
G00X138.85Y-115.75
M15
G01X138.15Y-115.75
M16
G05
G00X138.85Y-125.75
M15
G01X138.15Y-125.75
M16
G05
G00X143.5Y-121.1
M15
G01X143.5Y-120.4
M16
G05
T9
G00X129.1Y-101.85
M15
G01X129.9Y-101.85
M16
G05
G00X129.1Y-113.25
M15
G01X129.9Y-113.25
M16
G05
T0
M30
