G04 #@! TF.GenerationSoftware,KiCad,Pcbnew,5.1.5+dfsg1-2build2*
G04 #@! TF.CreationDate,2020-07-12T21:20:54-07:00*
G04 #@! TF.ProjectId,muSDRx,6d755344-5278-42e6-9b69-6361645f7063,0.1*
G04 #@! TF.SameCoordinates,Original*
G04 #@! TF.FileFunction,Paste,Top*
G04 #@! TF.FilePolarity,Positive*
%FSLAX46Y46*%
G04 Gerber Fmt 4.6, Leading zero omitted, Abs format (unit mm)*
G04 Created by KiCad (PCBNEW 5.1.5+dfsg1-2build2) date 2020-07-12 21:20:54*
%MOMM*%
%LPD*%
G04 APERTURE LIST*
%ADD10R,0.780000X0.420000*%
%ADD11R,0.750000X0.600000*%
%ADD12R,0.600000X0.750000*%
%ADD13R,0.540000X0.480000*%
%ADD14R,0.900000X1.320000*%
%ADD15R,0.780000X0.360000*%
%ADD16R,0.420000X0.780000*%
%ADD17R,0.180000X0.840000*%
%ADD18R,0.900000X0.360000*%
%ADD19R,0.360000X0.930000*%
%ADD20R,1.320000X0.720000*%
%ADD21R,1.830000X1.650000*%
%ADD22R,0.840000X0.720000*%
G04 APERTURE END LIST*
D10*
X97750000Y-143550000D03*
X97750000Y-145450000D03*
D11*
X81750000Y-122750000D03*
X81750000Y-120750000D03*
D12*
X62250000Y-116750000D03*
X60250000Y-116750000D03*
X71750000Y-114250000D03*
X73750000Y-114250000D03*
D11*
X68000000Y-112250000D03*
X68000000Y-114250000D03*
D12*
X63250000Y-118750000D03*
X65250000Y-118750000D03*
X80750000Y-100250000D03*
X78750000Y-100250000D03*
D11*
X90750000Y-102250000D03*
X90750000Y-100250000D03*
X59000000Y-148500000D03*
X59000000Y-146500000D03*
X57000000Y-146500000D03*
X57000000Y-148500000D03*
D12*
X62250000Y-138250000D03*
X64250000Y-138250000D03*
X90750000Y-111250000D03*
X88750000Y-111250000D03*
X88750000Y-109250000D03*
X90750000Y-109250000D03*
X77660000Y-114040000D03*
X75660000Y-114040000D03*
X88750000Y-107250000D03*
X90750000Y-107250000D03*
X88750000Y-105250000D03*
X90750000Y-105250000D03*
X88750000Y-139500000D03*
X86750000Y-139500000D03*
X99250000Y-115750000D03*
X97250000Y-115750000D03*
X100000000Y-105750000D03*
X98000000Y-105750000D03*
D11*
X96250000Y-104000000D03*
X96250000Y-106000000D03*
D12*
X102500000Y-117750000D03*
X104500000Y-117750000D03*
X104500000Y-103750000D03*
X102500000Y-103750000D03*
X54500000Y-116250000D03*
X52500000Y-116250000D03*
D13*
X61750000Y-120750000D03*
X59750000Y-121700000D03*
X59750000Y-119800000D03*
D14*
X76950000Y-109250000D03*
X70550000Y-109250000D03*
D15*
X75710000Y-115990000D03*
X75710000Y-117890000D03*
X77810000Y-116940000D03*
D16*
X139200000Y-102500000D03*
X137300000Y-102500000D03*
D10*
X119250000Y-102050000D03*
X119250000Y-103950000D03*
X79750000Y-137300000D03*
X79750000Y-139200000D03*
D16*
X118050000Y-106000000D03*
X119950000Y-106000000D03*
D10*
X77750000Y-139200000D03*
X77750000Y-137300000D03*
D16*
X84700000Y-100250000D03*
X82800000Y-100250000D03*
D10*
X88750000Y-102200000D03*
X88750000Y-100300000D03*
X93750000Y-100300000D03*
X93750000Y-102200000D03*
D16*
X67700000Y-138250000D03*
X65800000Y-138250000D03*
D10*
X69500000Y-137550000D03*
X69500000Y-139450000D03*
D16*
X85950000Y-131250000D03*
X84050000Y-131250000D03*
D10*
X88750000Y-130800000D03*
X88750000Y-132700000D03*
D16*
X95300000Y-123250000D03*
X97200000Y-123250000D03*
D10*
X91250000Y-130800000D03*
X91250000Y-132700000D03*
D16*
X94200000Y-112250000D03*
X92300000Y-112250000D03*
X92300000Y-115750000D03*
X94200000Y-115750000D03*
X94200000Y-105250000D03*
X92300000Y-105250000D03*
X94200000Y-108750000D03*
X92300000Y-108750000D03*
X99950000Y-103750000D03*
X98050000Y-103750000D03*
X97300000Y-117750000D03*
X99200000Y-117750000D03*
X75700000Y-138750000D03*
X73800000Y-138750000D03*
D17*
X81250000Y-117450000D03*
X81750000Y-117450000D03*
X82250000Y-117450000D03*
X82750000Y-117450000D03*
X83250000Y-117450000D03*
X83250000Y-113050000D03*
X82750000Y-113050000D03*
X82250000Y-113050000D03*
X81750000Y-113050000D03*
X81250000Y-113050000D03*
D18*
X84450000Y-111195000D03*
X84450000Y-109925000D03*
X84450000Y-108655000D03*
X84450000Y-107385000D03*
X84450000Y-106115000D03*
X84450000Y-104845000D03*
X84450000Y-103575000D03*
X84450000Y-102305000D03*
X79050000Y-102305000D03*
X79050000Y-103575000D03*
X79050000Y-104845000D03*
X79050000Y-106115000D03*
X79050000Y-107385000D03*
X79050000Y-108655000D03*
X79050000Y-109925000D03*
X79050000Y-111195000D03*
D19*
X96345000Y-113450000D03*
X97615000Y-113450000D03*
X98885000Y-113450000D03*
X100155000Y-113450000D03*
X100155000Y-108050000D03*
X98885000Y-108050000D03*
X97615000Y-108050000D03*
X96345000Y-108050000D03*
D20*
X64550000Y-116470000D03*
X64550000Y-121030000D03*
D21*
X72525000Y-120275000D03*
X69175000Y-117225000D03*
X72525000Y-117225000D03*
X69175000Y-120275000D03*
D22*
X85150000Y-117100000D03*
X87350000Y-117100000D03*
X87350000Y-115400000D03*
X85150000Y-115400000D03*
M02*
